<svg xmlns="http://www.w3.org/2000/svg" width="260" height="260" viewBox="0 0 260 260"><path fill="#FBD800" d="M103.34 26.945c57.76 0 103.11 45.355 103.11 103.05 0 57.7-45.35 103.06-103.11 103.06-57.646 0-102.996-45.36-102.996-103.06 0-57.694 45.35-103.05 102.996-103.05"/><path fill="#fff" d="M104.556 176.97c11.57 0 20.647 9.088 20.647 20.635 0 11.554-9.077 20.642-20.647 20.642-11.545 0-20.63-9.088-20.63-20.642 0-11.547 9.085-20.634 20.63-20.634"/><path fill="#D42D27" d="M104.56 182.79c8.315 0 14.833 6.525 14.833 14.832s-6.518 14.833-14.833 14.833c-8.296 0-14.824-6.526-14.824-14.833s6.528-14.833 14.824-14.833"/><path fill="#757679" d="M134.293 192.876v7.08c0 12.354 7.227 17.64 17.336 17.64 3.88 0 7.375-.627 11.654-1.865l-1.943-7.537c-3.112.848-6.14 1.552-9.33 1.552-5.513 0-8.622-2.717-8.622-10.027v-6.685c0-7.22 3.108-9.942 8.622-9.942 3.19 0 6.297.697 9.33 1.55l1.865-7.53c-3.89-1.172-7.695-1.87-11.578-1.87-10.11-.003-17.337 5.282-17.337 17.637"/><path fill="#757679" d="M184.73 175.236c-9.633 0-16.707 6.22-16.707 17.64v6.998c0 11.43 7.074 17.718 16.707 17.718 9.723 0 16.793-6.287 16.793-17.718v-6.917c0-11.5-7.07-17.72-16.793-17.72m7.776 24.246c0 6.917-2.64 10.263-7.775 10.263-5.05 0-7.687-3.346-7.687-10.263v-6.143c0-6.917 2.64-10.252 7.69-10.252 5.136 0 7.774 3.335 7.774 10.252v6.143zm67.15 17.1V191.48c0-10.876-6.84-16.244-15.234-16.244-4.742 0-8.473 2.336-10.725 6.367-2.174-3.954-5.902-6.367-10.648-6.367-8.316 0-15.23 5.368-15.23 16.243v25.1h9.092v-24.324c0-6.062 2.178-9.168 6.137-9.168 3.886 0 6.14 3.65 6.14 10.49v23.002h9.094v-23c0-6.84 2.17-10.49 6.14-10.49s6.142 3.105 6.142 9.167v24.325h9.09z"/><path fill="#1E1E1E" d="M105.54 164.31c3.178 0 6.155-.856 8.616-2.34l.258-.166 1.932 1.906 5.92-5.822-2.492-2.445.083-.236c.443-1.234.68-2.558.68-3.95v-13.91c-.027-8.98-5.992-14.577-15.15-14.61-4.158-.004-8.355 1.017-12.35 2.284l1.742 6.627c3.48-1.037 7.1-1.844 10.605-1.844 2.136 0 3.865.684 5.026 1.985 1.164 1.312 1.74 3.208 1.74 5.56v1.87h-6.765c-8.917.028-14.822 4.046-14.84 12.04.015 7.366 6.456 13.037 14.995 13.052m-5.104-17.374c1.012-1.126 2.623-1.826 4.875-1.826h6.843v6.146c-.01 3.012-2.526 5.98-6.61 5.98h-.01c-2.15 0-3.795-.753-4.886-1.914-1.103-1.16-1.632-2.694-1.632-4.222 0-1.54.402-3.04 1.422-4.164m52.9 5.558c-.013-5.264-2.31-8.043-5.26-9.968-2.946-1.917-6.542-2.87-9.034-4.303-1.656-.942-2.885-2.21-2.88-4.145 0-1.164.362-2.262 1.233-3.054.873-.78 2.203-1.223 4.053-1.223 3.025 0 5.62.648 8.43 1.527l1.822-6.86c-3.49-1.158-6.764-1.73-10.254-1.73-8.64.022-13.82 4.817-13.83 11.342.01 5.09 2.316 7.782 5.276 9.695 2.97 1.903 6.59 2.903 9.096 4.45 1.66 1.024 2.893 2.39 2.88 4.43-.01 2.724-2.77 4.58-6.37 4.58-3.494 0-6.898-.724-10.212-1.75l-1.608 6.708c3.967 1.39 7.783 2.115 11.82 2.115 10.172-.024 14.814-5.888 14.836-11.813M160.666 123.746h8.314v39.556h-8.314zm30.652 40.564c3.166 0 6.148-.856 8.605-2.34l.26-.166 1.936 1.906 5.916-5.822-2.488-2.445.08-.236c.437-1.234.683-2.558.683-3.95v-13.91c-.03-8.98-5.99-14.577-15.155-14.61-4.162-.004-8.346 1.017-12.35 2.284l1.752 6.627c3.468-1.037 7.093-1.844 10.597-1.844 2.14 0 3.865.684 5.023 1.985 1.168 1.312 1.746 3.208 1.746 5.56v1.87h-6.77c-8.916.028-14.818 4.046-14.838 12.04.008 7.366 6.46 13.037 15 13.052m-5.117-17.374c1.022-1.126 2.626-1.826 4.878-1.826h6.848v6.146c-.008 3.012-2.527 5.98-6.607 5.98h-.013c-2.156 0-3.803-.753-4.893-1.914-1.095-1.16-1.632-2.694-1.632-4.222 0-1.54.41-3.04 1.42-4.164M87.975 86.192v8.552c0 10.722 7.542 16.864 16.4 16.864 8.783 0 16.398-6.143 16.398-16.864V53.71H111.6v17.873c-1.866-1.164-4.89-2.33-7.926-2.33-8.158 0-15.7 5.438-15.7 16.94m23.628-6.995v15.156c0 6.377-3.108 9.408-7.227 9.408s-7.383-3.03-7.383-9.408v-7.77c0-6.996 3.34-9.485 7.462-9.485 2.406 0 4.817.855 7.148 2.097M128.306 70.264h9.098V110.6h-9.098zm32.944-1.012c-8.936 0-15.852 6.06-15.852 15.31v26.035h9.02V84.56c0-4.424 2.717-7.463 6.91-7.463 1.633 0 3.574.392 4.82.705l1.71-7.543c-1.864-.627-4.426-1.01-6.608-1.01M202.44 93.034V84.48c0-9.014-7.147-15.227-16.013-15.227-8.785 0-15.932 5.824-15.932 16.708v8.548c0 11.193 6.998 17.103 17.254 17.103 4.973 0 8.54-.697 12.75-2.26l-1.79-7.457c-3.58 1.09-7.147 1.87-10.962 1.87-5.216 0-8.24-2.957-8.24-9.255v-1.474h22.93zm-22.93-8.008c0-4.972 2.88-7.93 6.918-7.93 4.193 0 6.916 3.192 6.916 7.385v1.87H179.51v-1.323zm28.758 1.867v7.072c0 12.357 7.227 17.646 17.324 17.646 3.89 0 7.39-.625 11.66-1.863l-1.94-7.54c-3.105.853-6.138 1.556-9.325 1.556-5.523 0-8.63-2.723-8.63-10.03V87.05c0-7.228 3.106-9.952 8.63-9.952 3.188 0 6.29.707 9.324 1.557l1.87-7.536c-3.888-1.17-7.696-1.868-11.587-1.868-10.098-.002-17.324 5.282-17.324 17.64m51.294 24.714l.092-7.85c-3.963-.063-7.12-2.89-7.328-8.767h-.03V76.555h7.153V70.26h-7.15V57.59l-9.17 1.482V94.18h.008v.565c0 10.657 7.533 16.793 16.427 16.86"/></svg>