<?xml version="1.0" encoding="utf-8"?>
<!-- Generator: Adobe Illustrator 16.0.0, SVG Export Plug-In . SVG Version: 6.00 Build 0)  -->
<!DOCTYPE svg PUBLIC "-//W3C//DTD SVG 1.1//EN" "http://www.w3.org/Graphics/SVG/1.1/DTD/svg11.dtd">
<svg version="1.1" id="Layer_1" xmlns="http://www.w3.org/2000/svg" xmlns:xlink="http://www.w3.org/1999/xlink" x="0px" y="0px"
	 width="260px" height="260px" viewBox="0 0 260 260" enable-background="new 0 0 260 260" xml:space="preserve">
<g>
	<path fill="#FBD800" d="M103.34,26.945c57.759,0,103.109,45.355,103.109,103.051c0,57.698-45.35,103.059-103.109,103.059
		c-57.646,0-102.996-45.36-102.996-103.059C0.344,72.301,45.694,26.945,103.34,26.945"/>
	<path fill="#FFFFFF" d="M104.556,176.971c11.57,0,20.647,9.087,20.647,20.634c0,11.554-9.077,20.642-20.647,20.642
		c-11.545,0-20.631-9.088-20.631-20.642C83.925,186.058,93.011,176.971,104.556,176.971"/>
	<path fill="#D42D27" d="M104.56,182.789c8.315,0,14.833,6.526,14.833,14.833s-6.518,14.833-14.833,14.833
		c-8.296,0-14.824-6.526-14.824-14.833S96.264,182.789,104.56,182.789"/>
	<path fill="#757679" d="M134.293,192.876v7.079c0,12.355,7.227,17.641,17.336,17.641c3.883,0,7.377-0.627,11.656-1.865
		l-1.943-7.539c-3.113,0.848-6.139,1.552-9.33,1.552c-5.514,0-8.623-2.717-8.623-10.027v-6.685c0-7.22,3.109-9.942,8.623-9.942
		c3.191,0,6.297,0.696,9.33,1.551l1.865-7.532c-3.889-1.172-7.695-1.871-11.578-1.871
		C141.52,175.236,134.293,180.521,134.293,192.876"/>
	<path fill="#757679" d="M184.73,175.236c-9.633,0-16.707,6.22-16.707,17.64v6.998c0,11.431,7.074,17.718,16.707,17.718
		c9.723,0,16.793-6.287,16.793-17.718v-6.917C201.523,181.456,194.453,175.236,184.73,175.236 M192.506,199.483
		c0,6.917-2.639,10.263-7.775,10.263c-5.051,0-7.689-3.346-7.689-10.263v-6.143c0-6.917,2.639-10.252,7.689-10.252
		c5.137,0,7.775,3.335,7.775,10.252V199.483z"/>
	<path fill="#757679" d="M259.656,216.582v-25.103c0-10.875-6.84-16.243-15.234-16.243c-4.742,0-8.473,2.336-10.725,6.367
		c-2.174-3.954-5.902-6.367-10.648-6.367c-8.314,0-15.23,5.368-15.23,16.243v25.103h9.094v-24.325c0-6.062,2.178-9.168,6.137-9.168
		c3.887,0,6.139,3.651,6.139,10.491v23.002h9.096V193.58c0-6.84,2.17-10.491,6.139-10.491s6.143,3.106,6.143,9.168v24.325H259.656z"
		/>
	<path fill="#1E1E1E" d="M105.541,164.309c3.177,0,6.154-0.855,8.615-2.34l0.258-0.165l1.932,1.906l5.919-5.822l-2.491-2.445
		l0.083-0.236c0.443-1.234,0.681-2.558,0.681-3.95v-13.911c-0.028-8.978-5.993-14.576-15.151-14.61
		c-4.158-0.003-8.355,1.018-12.351,2.285l1.743,6.625c3.481-1.037,7.102-1.844,10.607-1.844c2.136,0,3.865,0.684,5.026,1.985
		c1.163,1.312,1.74,3.208,1.74,5.559v1.871h-6.766c-8.917,0.028-14.822,4.046-14.84,12.04
		C90.561,158.623,97.002,164.294,105.541,164.309 M100.436,146.936c1.012-1.126,2.623-1.826,4.875-1.826h6.841v6.146
		c-0.01,3.012-2.526,5.98-6.611,5.98h-0.01c-2.148,0-3.794-0.753-4.885-1.914c-1.103-1.161-1.632-2.694-1.632-4.222
		C99.013,149.56,99.416,148.061,100.436,146.936"/>
	<path fill="#1E1E1E" d="M153.338,152.494c-0.014-5.264-2.311-8.043-5.26-9.968c-2.947-1.917-6.543-2.87-9.035-4.303
		c-1.656-0.942-2.885-2.209-2.881-4.145c0-1.164,0.363-2.262,1.234-3.054c0.873-0.78,2.203-1.223,4.053-1.223
		c3.027,0,5.623,0.646,8.43,1.525l1.824-6.86c-3.49-1.158-6.764-1.729-10.254-1.729c-8.639,0.021-13.819,4.816-13.829,11.341
		c0.01,5.092,2.316,7.783,5.276,9.696c2.971,1.903,6.59,2.903,9.096,4.451c1.66,1.023,2.893,2.389,2.881,4.43
		c-0.01,2.723-2.77,4.58-6.371,4.58c-3.494,0-6.898-0.725-10.212-1.752l-1.608,6.709c3.967,1.39,7.783,2.115,11.82,2.115
		C148.674,164.283,153.316,158.419,153.338,152.494"/>
	<rect x="160.666" y="123.746" fill="#1E1E1E" width="8.314" height="39.556"/>
	<path fill="#1E1E1E" d="M191.318,164.309c3.166,0,6.148-0.855,8.605-2.34l0.26-0.165l1.936,1.906l5.918-5.822l-2.488-2.445
		l0.08-0.236c0.438-1.234,0.684-2.558,0.684-3.95v-13.911c-0.029-8.978-5.992-14.576-15.156-14.61
		c-4.162-0.003-8.346,1.018-12.35,2.285l1.752,6.625c3.469-1.037,7.094-1.844,10.598-1.844c2.139,0,3.865,0.684,5.023,1.985
		c1.168,1.312,1.746,3.208,1.746,5.559v1.871h-6.77c-8.916,0.028-14.818,4.046-14.838,12.04
		C176.326,158.623,182.779,164.294,191.318,164.309 M186.201,146.936c1.021-1.126,2.625-1.826,4.877-1.826h6.848v6.146
		c-0.008,3.012-2.527,5.98-6.607,5.98h-0.012c-2.156,0-3.803-0.753-4.893-1.914c-1.096-1.161-1.633-2.694-1.633-4.222
		C184.781,149.56,185.189,148.061,186.201,146.936"/>
	<path fill="#1E1E1E" d="M87.975,86.192v8.552c0,10.722,7.542,16.864,16.4,16.864c8.783,0,16.398-6.143,16.398-16.864V53.711h-9.172
		v17.872c-1.867-1.164-4.892-2.331-7.927-2.331C95.516,69.252,87.975,74.691,87.975,86.192 M111.602,79.198v15.156
		c0,6.377-3.108,9.408-7.227,9.408s-7.383-3.031-7.383-9.408v-7.77c0-6.996,3.341-9.485,7.462-9.485
		C106.86,77.1,109.271,77.956,111.602,79.198"/>
	<rect x="128.306" y="70.264" fill="#1E1E1E" width="9.098" height="40.337"/>
	<path fill="#1E1E1E" d="M161.25,69.252c-8.936,0-15.852,6.061-15.852,15.309v26.036h9.02V84.561c0-4.425,2.717-7.464,6.91-7.464
		c1.633,0,3.574,0.392,4.82,0.705l1.709-7.543C165.994,69.634,163.432,69.252,161.25,69.252"/>
	<path fill="#1E1E1E" d="M202.439,93.034v-8.553c0-9.015-7.146-15.228-16.012-15.228c-8.785,0-15.932,5.824-15.932,16.708v8.546
		c0,11.193,6.998,17.103,17.254,17.103c4.975,0,8.543-0.698,12.75-2.259l-1.787-7.459c-3.582,1.089-7.148,1.87-10.963,1.87
		c-5.215,0-8.24-2.957-8.24-9.255v-1.474H202.439z M179.51,85.026c0-4.972,2.879-7.93,6.918-7.93c4.193,0,6.916,3.192,6.916,7.385
		v1.869H179.51V85.026z"/>
	<path fill="#1E1E1E" d="M208.268,86.893v7.072c0,12.357,7.227,17.646,17.324,17.646c3.891,0,7.389-0.627,11.66-1.865l-1.941-7.541
		c-3.104,0.854-6.137,1.557-9.324,1.557c-5.523,0-8.631-2.723-8.631-10.03v-6.683c0-7.227,3.107-9.951,8.631-9.951
		c3.188,0,6.291,0.707,9.324,1.557l1.867-7.536c-3.887-1.168-7.695-1.866-11.586-1.866
		C215.494,69.251,208.268,74.535,208.268,86.893"/>
	<path fill="#1E1E1E" d="M259.564,111.606l0.092-7.851c-3.963-0.062-7.121-2.889-7.328-8.766h-0.029V76.557h7.152v-6.298h-7.152
		V57.591l-9.168,1.481v11.187v6.298v17.624h0.006v0.564C243.137,105.402,250.67,111.538,259.564,111.606"/>
</g>
</svg>
